<svg width="32" height="32" viewBox="0 0 32 32" fill="none" xmlns="http://www.w3.org/2000/svg">
<path d="M16.0003 2.66675C16.3539 2.66675 16.6931 2.80722 16.9431 3.05727C17.1932 3.30732 17.3337 3.64646 17.3337 4.00008C17.3337 4.3537 17.1932 4.69284 16.9431 4.94289C16.6931 5.19294 16.3539 5.33341 16.0003 5.33341C13.8907 5.33341 11.8284 5.959 10.0742 7.13107C8.32012 8.30314 6.95295 9.96905 6.14561 11.9181C5.33828 13.8672 5.12704 16.0119 5.53862 18.081C5.95019 20.1502 6.96609 22.0508 8.45785 23.5426C9.94961 25.0343 11.8502 26.0502 13.9194 26.4618C15.9885 26.8734 18.1332 26.6621 20.0823 25.8548C22.0314 25.0475 23.6973 23.6803 24.8693 21.9262C26.0414 20.172 26.667 18.1097 26.667 16.0001C26.667 15.6465 26.8075 15.3073 27.0575 15.0573C27.3076 14.8072 27.6467 14.6667 28.0003 14.6667C28.3539 14.6667 28.6931 14.8072 28.9431 15.0573C29.1932 15.3073 29.3337 15.6465 29.3337 16.0001C29.3337 23.3641 23.3643 29.3334 16.0003 29.3334C8.63633 29.3334 2.66699 23.3641 2.66699 16.0001C2.66699 8.63608 8.63633 2.66675 16.0003 2.66675ZM16.0003 8.00008C16.3539 8.00008 16.6931 8.14056 16.9431 8.39061C17.1932 8.64065 17.3337 8.97979 17.3337 9.33341C17.3337 9.68704 17.1932 10.0262 16.9431 10.2762C16.6931 10.5263 16.3539 10.6667 16.0003 10.6667C14.9455 10.6667 13.9143 10.9795 13.0373 11.5656C12.1602 12.1516 11.4766 12.9846 11.073 13.9591C10.6693 14.9336 10.5637 16.006 10.7695 17.0406C10.9753 18.0751 11.4832 19.0254 12.2291 19.7713C12.975 20.5172 13.9253 21.0251 14.9598 21.2309C15.9944 21.4367 17.0668 21.3311 18.0413 20.9274C19.0158 20.5238 19.8488 19.8402 20.4348 18.9631C21.0209 18.0861 21.3337 17.0549 21.3337 16.0001C21.3337 15.6465 21.4741 15.3073 21.7242 15.0573C21.9742 14.8072 22.3134 14.6667 22.667 14.6667C23.0206 14.6667 23.3598 14.8072 23.6098 15.0573C23.8598 15.3073 24.0003 15.6465 24.0003 16.0001C24.0003 17.5823 23.5311 19.129 22.6521 20.4446C21.773 21.7602 20.5236 22.7856 19.0618 23.3911C17.6 23.9966 15.9915 24.155 14.4396 23.8464C12.8878 23.5377 11.4623 22.7758 10.3435 21.6569C9.22465 20.5381 8.46272 19.1126 8.15404 17.5608C7.84536 16.009 8.00379 14.4004 8.60929 12.9386C9.21479 11.4768 10.2402 10.2274 11.5558 9.34832C12.8714 8.46927 14.4181 8.00008 16.0003 8.00008ZM24.7617 2.80008C24.9385 2.80008 25.108 2.87032 25.2331 2.99534C25.3581 3.12037 25.4283 3.28994 25.4283 3.46675V5.90675C25.4287 6.08333 25.4991 6.25255 25.6241 6.37729C25.749 6.50203 25.9184 6.57208 26.095 6.57208H28.5337C28.7105 6.57208 28.88 6.64232 29.0051 6.76734C29.1301 6.89237 29.2003 7.06194 29.2003 7.23875V8.45875L26.683 10.9761C26.183 11.4762 25.5048 11.7573 24.7977 11.7574H22.131L16.9443 16.9427C16.6929 17.1856 16.3561 17.32 16.0065 17.317C15.6569 17.3139 15.3224 17.1737 15.0752 16.9265C14.828 16.6793 14.6878 16.3449 14.6848 15.9953C14.6817 15.6457 14.8161 15.3089 15.059 15.0574L20.2457 9.87208V7.20541C20.2455 6.49842 20.526 5.82028 21.0257 5.32008L23.5457 2.80008H24.7617Z" fill="#EE3B39"/>
</svg>
