<svg width="24" height="24" viewBox="0 0 24 24" fill="none" xmlns="http://www.w3.org/2000/svg">
<path d="M12 22C10.2333 22 8.79167 21.7348 7.675 21.2043C6.55833 20.6736 6 19.9944 6 19.1667C6 18.7444 6.16808 18.3458 6.50425 17.9708C6.84025 17.5958 7.30275 17.2832 7.89175 17.0332L9.16675 18.225C8.89442 18.3028 8.62358 18.4306 8.35425 18.6083C8.08475 18.7861 7.85558 18.9722 7.66675 19.1667C7.92775 19.4777 8.48608 19.7499 9.34175 19.9833C10.1973 20.2166 11.0833 20.3333 12 20.3333C12.9167 20.3333 13.8069 20.2166 14.6708 19.9833C15.5348 19.7499 16.0973 19.4777 16.3583 19.1667C16.1639 18.9556 15.9195 18.7639 15.625 18.5917C15.3305 18.4194 15.0444 18.2944 14.7668 18.2167L16.05 17.0168C16.6722 17.2723 17.1528 17.5875 17.4918 17.9625C17.8306 18.3375 18 18.7389 18 19.1667C18 19.9944 17.4417 20.6736 16.325 21.2043C15.2083 21.7348 13.7667 22 12 22ZM12.025 16.9168C13.7862 15.6111 15.1112 14.293 16 12.9625C16.8888 11.632 17.3333 10.3612 17.3333 9.15C17.3333 7.33883 16.7583 5.97217 15.6083 5.05C14.4583 4.12783 13.2555 3.66675 12 3.66675C10.7555 3.66675 9.5555 4.12783 8.4 5.05C7.2445 5.97217 6.66675 7.33883 6.66675 9.15C6.66675 10.3333 7.10842 11.5652 7.99175 12.8457C8.87508 14.1264 10.2195 15.4834 12.025 16.9168ZM12 19C9.66117 17.2667 7.90975 15.5833 6.74575 13.95C5.58192 12.3167 5 10.7167 5 9.15C5 7.96667 5.2125 6.92917 5.6375 6.0375C6.0625 5.14583 6.61108 4.4 7.28325 3.8C7.95558 3.2 8.70558 2.75 9.53325 2.45C10.3611 2.15 11.1833 2 12 2C12.8167 2 13.6417 2.15 14.475 2.45C15.3083 2.75 16.0583 3.2 16.725 3.8C17.3917 4.4 17.9375 5.14583 18.3625 6.0375C18.7875 6.92917 19 7.96667 19 9.15C19 10.7167 18.4208 12.3167 17.2625 13.95C16.1042 15.5833 14.35 17.2667 12 19ZM12 11C12.55 11 13.0208 10.8042 13.4125 10.4125C13.8042 10.0208 14 9.55 14 9C14 8.45 13.8042 7.97917 13.4125 7.5875C13.0208 7.19583 12.55 7 12 7C11.45 7 10.9792 7.19583 10.5875 7.5875C10.1958 7.97917 10 8.45 10 9C10 9.55 10.1958 10.0208 10.5875 10.4125C10.9792 10.8042 11.45 11 12 11Z" fill="#00ADEF"/>
</svg>
