<svg
    width="29"
    height="29"
    viewBox="0 0 29 29"
    fill="none"
    xmlns="http://www.w3.org/2000/svg"
>
    <path
        d="M19.6296 14.7791C22.8496 14.7791 25.4629 12.1658 25.4629 8.94576C25.4629 5.72576 22.8496 3.11243 19.6296 3.11243C16.4096 3.11243 13.7962 5.72576 13.7962 8.94576C13.7962 12.1658 16.4096 14.7791 19.6296 14.7791ZM25.9879 21.3124C25.5329 20.8458 24.9612 20.6124 24.2962 20.6124H16.1296L13.7029 19.7608L14.0879 18.6641L16.1296 19.4458H19.3962C19.8046 19.4458 20.1312 19.2824 20.3996 19.0141C20.6679 18.7458 20.7962 18.4191 20.7962 18.0574C20.7962 17.4274 20.4929 16.9958 19.8862 16.7508L11.4046 13.6124H9.12955V24.1124L17.2962 26.4458L26.6646 22.9458C26.6762 22.3274 26.4429 21.7791 25.9879 21.3124ZM6.79622 13.6124H2.11089V26.4458H6.79622V13.6124Z"
        fill="white"
    />
</svg>