<svg
    width="30"
    height="30"
    viewBox="0 0 30 30"
    fill="none"
    xmlns="http://www.w3.org/2000/svg"
>
    <path
        d="M21.5385 0.288574C21.972 0.288574 22.3878 0.460792 22.6943 0.767342C23.0009 1.07389 23.1731 1.48966 23.1731 1.92319V3.55781H26.4423C27.2671 3.55754 28.0615 3.86905 28.6663 4.42987C29.2711 4.99069 29.6415 5.75938 29.7034 6.58184L29.7115 6.82704V26.4424C29.7118 27.2672 29.4003 28.0616 28.8395 28.6664C28.2787 29.2712 27.51 29.6416 26.6875 29.7035L26.4423 29.7117H3.5577C2.73291 29.7119 1.9385 29.4004 1.33373 28.8396C0.728948 28.2788 0.3585 27.5101 0.296641 26.6876L0.288468 26.4424V6.82704C0.288207 6.00225 0.599709 5.20784 1.16053 4.60306C1.72135 3.99829 2.49004 3.62784 3.31251 3.56598L3.5577 3.55781H6.82693V1.92319C6.82693 1.48966 6.99915 1.07389 7.3057 0.767342C7.61225 0.460792 8.02802 0.288574 8.46154 0.288574C8.89507 0.288574 9.31084 0.460792 9.61739 0.767342C9.92394 1.07389 10.0962 1.48966 10.0962 1.92319V3.55781H19.9039V1.92319C19.9039 1.48966 20.0761 1.07389 20.3826 0.767342C20.6892 0.460792 21.1049 0.288574 21.5385 0.288574ZM19.6162 10.7158L12.6821 17.6498L10.3691 15.3385C10.0608 15.0407 9.64794 14.876 9.21935 14.8797C8.79076 14.8834 8.38078 15.0553 8.07771 15.3584C7.77464 15.6615 7.60272 16.0714 7.599 16.5C7.59528 16.9286 7.76004 17.3415 8.05779 17.6498L11.5134 21.107C11.6667 21.2605 11.8488 21.3822 12.0492 21.4653C12.2496 21.5484 12.4644 21.5911 12.6813 21.5911C12.8982 21.5911 13.113 21.5484 13.3134 21.4653C13.5138 21.3822 13.6959 21.2605 13.8492 21.107L21.9275 13.0271C22.0836 12.8763 22.2082 12.696 22.2938 12.4965C22.3795 12.2971 22.4246 12.0826 22.4265 11.8656C22.4284 11.6485 22.387 11.4333 22.3048 11.2324C22.2226 11.0315 22.1012 10.849 21.9478 10.6955C21.7943 10.542 21.6118 10.4207 21.4109 10.3385C21.21 10.2563 20.9948 10.2149 20.7777 10.2168C20.5607 10.2187 20.3462 10.2638 20.1467 10.3495C19.9473 10.4351 19.7669 10.5597 19.6162 10.7158Z"
        fill="white"
    />
</svg>