<svg
    width="36"
    height="37"
    viewBox="0 0 36 37"
    fill="none"
    xmlns="http://www.w3.org/2000/svg"
>
    <path
        d="M19.8 4.48949C20.7548 4.48949 21.6704 4.86878 22.3456 5.54391C23.0207 6.21904 23.4 7.13471 23.4 8.08949H27.9C28.6161 8.08949 29.3028 8.37396 29.8092 8.88031C30.3155 9.38665 30.6 10.0734 30.6 10.7895V15.2895H28.8C27.8452 15.2895 26.9295 15.6688 26.2544 16.3439C25.5793 17.019 25.2 17.9347 25.2 18.8895C25.2 19.8443 25.5793 20.7599 26.2544 21.4351C26.9295 22.1102 27.8452 22.4895 28.8 22.4895H30.6V26.9895C30.6 27.7056 30.3155 28.3923 29.8092 28.8987C29.3028 29.405 28.6161 29.6895 27.9 29.6895H23.4C23.4 30.6443 23.0207 31.5599 22.3456 32.2351C21.6704 32.9102 20.7548 33.2895 19.8 33.2895C18.8452 33.2895 17.9295 32.9102 17.2544 32.2351C16.5793 31.5599 16.2 30.6443 16.2 29.6895H11.7C10.9839 29.6895 10.2971 29.405 9.79079 28.8987C9.28444 28.3923 8.99998 27.7056 8.99998 26.9895V20.5185L9.15658 20.5761C9.64258 20.7273 10.1592 20.7291 10.647 20.5761C12.123 20.1 13.4985 19.3556 14.7042 18.3801C16.3854 16.9959 18 14.7855 18 11.5545V7.74749C18.0029 7.36723 17.9178 6.99145 17.7513 6.64953C17.5849 6.30761 17.3416 6.00881 17.0406 5.77649C17.3786 5.37339 17.8008 5.04926 18.2775 4.82691C18.7543 4.60455 19.2739 4.48938 19.8 4.48949ZM9.21598 4.42289C9.40479 4.25611 9.64804 4.16406 9.89998 4.16406C10.1519 4.16406 10.3952 4.25611 10.584 4.42289C11.5002 5.29409 13.2552 6.68009 15.4134 6.96449C15.8454 7.02029 16.2 7.34609 16.2 7.75109V11.5527C16.2 16.6611 11.1888 18.5169 10.1052 18.8571C9.97234 18.8999 9.82941 18.8999 9.69658 18.8571C8.61298 18.5151 3.59998 16.6611 3.59998 11.5527V7.75109C3.59998 7.34609 3.95458 7.02029 4.38658 6.96449C6.54478 6.68009 8.30158 5.29409 9.21598 4.42289Z"
        fill="white"
    />
</svg>