<svg width="32" height="32" viewBox="0 0 32 32" fill="none" xmlns="http://www.w3.org/2000/svg">
<path d="M5.50293 6.18089C5.50293 4.99716 5.97316 3.86192 6.81018 3.0249C7.6472 2.18788 8.78244 1.71765 9.96616 1.71765L25.5875 1.71765C25.9426 1.71765 26.2832 1.85872 26.5343 2.10983C26.7854 2.36093 26.9265 2.7015 26.9265 3.05662V9.30515C26.9265 9.66027 26.7854 10.0008 26.5343 10.2519C26.2832 10.503 25.9426 10.6441 25.5875 10.6441C25.2324 10.6441 24.8918 10.503 24.6407 10.2519C24.3896 10.0008 24.2485 9.66027 24.2485 9.30515V4.39559H9.96616C9.49267 4.39559 9.03858 4.58368 8.70377 4.91849C8.36896 5.2533 8.18087 5.7074 8.18087 6.18089V18.1566C8.74407 17.9113 9.35185 17.7849 9.96616 17.7853H13.0904C13.4455 17.7853 13.7861 17.9264 14.0372 18.1775C14.2883 18.4286 14.4294 18.7691 14.4294 19.1243C14.4294 19.4794 14.2883 19.82 14.0372 20.0711C13.7861 20.3222 13.4455 20.4632 13.0904 20.4632H9.96616C9.49267 20.4632 9.03858 20.6513 8.70377 20.9861C8.36896 21.3209 8.18087 21.775 8.18087 22.2485C8.18087 22.722 8.36896 23.1761 8.70377 23.5109C9.03858 23.8457 9.49267 24.0338 9.96616 24.0338H13.0904C13.4455 24.0338 13.7861 24.1749 14.0372 24.426C14.2883 24.6771 14.4294 25.0177 14.4294 25.3728C14.4294 25.7279 14.2883 26.0685 14.0372 26.3196C13.7861 26.5707 13.4455 26.7118 13.0904 26.7118H9.96616C8.78244 26.7118 7.6472 26.2415 6.81018 25.4045C5.97316 24.5675 5.50293 23.4323 5.50293 22.2485V6.18089Z" fill="#2670CE"/>
<path d="M18.0001 19.8705V17.7853C18.0001 16.3649 18.5644 15.0026 19.5688 13.9981C20.5733 12.9937 21.9356 12.4294 23.356 12.4294C24.7765 12.4294 26.1388 12.9937 27.1432 13.9981C28.1476 15.0026 28.7119 16.3649 28.7119 17.7853V19.8705C29.767 20.3722 30.4972 21.4487 30.4972 22.6949V27.1581C30.4972 27.9867 30.168 28.7814 29.5821 29.3673C28.9962 29.9532 28.2015 30.2824 27.3729 30.2824H19.3391C18.5105 30.2824 17.7158 29.9532 17.1299 29.3673C16.544 28.7814 16.2148 27.9867 16.2148 27.1581V22.6949C16.2148 21.4487 16.945 20.374 18.0001 19.8705ZM26.034 19.5706V17.7853C26.034 17.0751 25.7518 16.3939 25.2496 15.8917C24.7474 15.3895 24.0663 15.1074 23.356 15.1074C22.6458 15.1074 21.9646 15.3895 21.4624 15.8917C20.9602 16.3939 20.6781 17.0751 20.6781 17.7853V19.5706H26.034Z" fill="#2670CE"/>
</svg>
