<svg width="32" height="32" viewBox="0 0 32 32" fill="none" xmlns="http://www.w3.org/2000/svg">
<path fill-rule="evenodd" clip-rule="evenodd" d="M22.4651 3.03603C22.566 2.87405 22.7126 2.74559 22.8865 2.66691C23.0603 2.58823 23.2536 2.56285 23.4419 2.59398L28.4048 3.42211C28.6572 3.46419 28.8825 3.60475 29.0312 3.81287C29.18 4.021 29.2401 4.27968 29.1982 4.53206L28.372 9.49692C28.3405 9.68512 28.2539 9.85976 28.1231 9.99875C27.9924 10.1377 27.8234 10.2349 27.6374 10.2778C27.4515 10.3208 27.257 10.3077 27.0785 10.2402C26.9001 10.1726 26.7456 10.0537 26.6347 9.89843L25.295 8.02599L18.396 12.4349C18.1017 12.6232 17.7494 12.6987 17.4039 12.6476C17.0583 12.5966 16.7429 12.4223 16.5158 12.1569L12.6686 7.65923L5.47418 11.3558C5.1327 11.5315 4.73545 11.5642 4.36982 11.4469C4.00419 11.3296 3.70013 11.0719 3.52453 10.7304C3.34892 10.3889 3.31617 9.99169 3.43346 9.62606C3.55075 9.26042 3.80848 8.95636 4.14996 8.78076L12.3636 4.55908C12.6536 4.41011 12.9854 4.36337 13.3052 4.42643C13.6251 4.48949 13.9143 4.65866 14.126 4.90654L17.8979 9.3174L23.6118 5.66517L22.4979 4.10738C22.3872 3.95204 22.325 3.76736 22.3192 3.57668C22.3133 3.386 22.3641 3.19786 22.4651 3.03603ZM9.82905 12.5141L4.22718 15.7184C4.00587 15.8449 3.82186 16.0274 3.69374 16.2478C3.56562 16.4681 3.49792 16.7183 3.4975 16.9732V28.0727C3.4975 28.8719 4.1461 29.5205 4.94527 29.5205H9.82905V12.5141ZM12.242 29.5205H19.3225V16.3709L16.1394 17.9615L12.9582 12.3944C12.7971 12.1115 12.5455 11.8912 12.2439 11.7689L12.242 29.5205ZM27.1443 29.5205H21.7355V15.1644L26.4976 12.7824C26.7184 12.6722 26.9636 12.6202 27.21 12.6314C27.4565 12.6426 27.696 12.7166 27.9058 12.8464C28.1156 12.9761 28.2888 13.1574 28.4089 13.3728C28.529 13.5883 28.5921 13.8309 28.5921 14.0776V28.0727C28.5921 28.4567 28.4395 28.8249 28.168 29.0964C27.8965 29.3679 27.5283 29.5205 27.1443 29.5205Z" fill="#03C421"/>
</svg>
