<svg width="32" height="32" viewBox="0 0 32 32" fill="none" xmlns="http://www.w3.org/2000/svg">
<path d="M23.5684 12.3367C23.8898 12.3368 24.2017 12.439 24.459 12.6277L24.5654 12.7136L24.5723 12.7195C25.675 13.7681 27.7616 15.4095 30.3066 15.7449H30.3057C30.92 15.8242 31.4804 16.2956 31.4805 16.949V21.573C31.4805 24.7737 29.9066 26.9559 28.1777 28.3816C26.4555 29.8017 24.5693 30.4802 23.8936 30.6921C23.6823 30.7601 23.4554 30.7611 23.2441 30.6931V30.6921C22.5702 30.4793 20.6832 29.8013 18.96 28.3816C17.2302 26.9565 15.6553 24.7749 15.6553 21.573V16.949C15.6554 16.2991 16.214 15.8218 16.8291 15.7419C19.3742 15.4066 21.4632 13.7687 22.5635 12.7205L22.5703 12.7136L22.6777 12.6277C22.9351 12.4392 23.247 12.3367 23.5684 12.3367ZM13.7158 1.50757C15.3789 1.50757 16.9744 2.16852 18.1504 3.34448C19.3261 4.52039 19.9863 6.1152 19.9863 7.77808C19.9863 9.44094 19.3261 11.0357 18.1504 12.2117C16.9744 13.3876 15.3789 14.0486 13.7158 14.0486C12.0528 14.0485 10.4581 13.3876 9.28223 12.2117C8.10636 11.0357 7.44531 9.44107 7.44531 7.77808C7.44533 6.11508 8.10633 4.52042 9.28223 3.34448C10.4581 2.16857 12.0528 1.50763 13.7158 1.50757ZM13.7158 4.19702C12.7661 4.19708 11.8552 4.57428 11.1836 5.24585C10.512 5.91745 10.1348 6.82832 10.1348 7.77808C10.1348 8.72782 10.5121 9.6387 11.1836 10.3103C11.8552 10.9819 12.7661 11.3591 13.7158 11.3591C14.6656 11.3591 15.5764 10.9819 16.248 10.3103C16.9197 9.63868 17.2969 8.72789 17.2969 7.77808C17.2969 6.82829 16.9196 5.91745 16.248 5.24585C15.5764 4.57432 14.6656 4.19702 13.7158 4.19702ZM13.9658 18.4275H6.05371C5.8297 18.4275 5.61446 18.5162 5.45605 18.6746C5.29765 18.833 5.20898 19.0482 5.20898 19.2722V20.3669C5.20918 23.3377 8.18908 26.6829 13.7148 26.6833C14.2112 26.6819 14.6884 26.6561 15.1455 26.6033L15.3037 26.5847L15.3877 26.7205C15.8297 27.4422 16.3465 28.0801 16.8994 28.6394L17.2217 28.9656L16.7734 29.0603C15.8936 29.2452 14.9988 29.3485 14.1006 29.3699L13.7158 29.3738C6.73493 29.3737 2.51972 24.8493 2.51953 20.3669V19.2722C2.51953 18.335 2.89194 17.4359 3.55469 16.7732C4.21743 16.1104 5.11645 15.738 6.05371 15.738H14.2588L14.127 16.0779C14.0193 16.3558 13.9642 16.6519 13.9658 16.95V18.4275Z" fill="#ACC20A" stroke="#ACC20A" stroke-width="0.5"/>
</svg>
