<svg
    width="37"
    height="37"
    viewBox="0 0 37 37"
    fill="none"
    xmlns="http://www.w3.org/2000/svg"
>
    <g clipPath="url(#clip0_16_336)">
        <path
            d="M4.96728 10.7791C4.06728 10.7791 3.46728 11.3791 3.46728 12.2791C3.46728 13.1791 4.06728 13.7791 4.96728 13.7791H7.96728V10.7791H4.96728ZM3.46728 16.7791C2.56729 16.7791 1.96729 17.3791 1.96729 18.2791C1.96729 19.1791 2.56729 19.7791 3.46728 19.7791H7.96728V16.7791H3.46728ZM1.96729 22.7791C1.06729 22.7791 0.467285 23.3791 0.467285 24.2791C0.467285 25.1791 1.06729 25.7791 1.96729 25.7791H7.96728V22.7791H1.96729ZM30.4673 7.77905H13.9673C12.3173 7.77905 10.9673 9.12905 10.9673 10.7791V31.7791L16.9673 25.7791H30.4673C32.1173 25.7791 33.4673 24.4291 33.4673 22.7791V10.7791C33.4673 9.12905 32.1173 7.77905 30.4673 7.77905Z"
            fill="white"
        />
    </g>
    <defs>
        <clipPath id="clip0_16_336">
            <rect
                width="36"
                height="36"
                fill="white"
                transform="translate(0.467285 0.279053)"
            />
        </clipPath>
    </defs>
</svg>