<svg
    width="29"
    height="29"
    viewBox="0 0 29 29"
    fill="none"
    xmlns="http://www.w3.org/2000/svg"
>
    <path
        d="M14.5476 12.1977C15.7853 12.1977 16.9723 11.706 17.8474 10.8309C18.7226 9.95571 19.2143 8.76872 19.2143 7.53105C19.2143 6.29337 18.7226 5.10638 17.8474 4.23122C16.9723 3.35605 15.7853 2.86438 14.5476 2.86438C13.3099 2.86438 12.1229 3.35605 11.2478 4.23122C10.3726 5.10638 9.88094 6.29337 9.88094 7.53105C9.88094 8.76872 10.3726 9.95571 11.2478 10.8309C12.1229 11.706 13.3099 12.1977 14.5476 12.1977ZM6.96427 15.6977C7.73782 15.6977 8.47968 15.3904 9.02666 14.8434C9.57365 14.2965 9.88094 13.5546 9.88094 12.781C9.88094 12.0075 9.57365 11.2656 9.02666 10.7187C8.47968 10.1717 7.73782 9.86438 6.96427 9.86438C6.19072 9.86438 5.44886 10.1717 4.90187 10.7187C4.35489 11.2656 4.0476 12.0075 4.0476 12.781C4.0476 13.5546 4.35489 14.2965 4.90187 14.8434C5.44886 15.3904 6.19072 15.6977 6.96427 15.6977ZM25.0476 12.781C25.0476 13.5546 24.7403 14.2965 24.1933 14.8434C23.6464 15.3904 22.9045 15.6977 22.1309 15.6977C21.3574 15.6977 20.6155 15.3904 20.0685 14.8434C19.5216 14.2965 19.2143 13.5546 19.2143 12.781C19.2143 12.0075 19.5216 11.2656 20.0685 10.7187C20.6155 10.1717 21.3574 9.86438 22.1309 9.86438C22.9045 9.86438 23.6464 10.1717 24.1933 10.7187C24.7403 11.2656 25.0476 12.0075 25.0476 12.781ZM14.5476 13.3644C16.0947 13.3644 17.5784 13.979 18.6724 15.0729C19.7664 16.1669 20.3809 17.6506 20.3809 19.1977V26.1977H8.71427V19.1977C8.71427 17.6506 9.32885 16.1669 10.4228 15.0729C11.5168 13.979 13.0005 13.3644 14.5476 13.3644ZM6.38094 19.1977C6.38094 18.3892 6.4976 17.6087 6.71694 16.8714L6.5186 16.8877C5.51863 16.9975 4.59438 17.4726 3.92308 18.2218C3.25177 18.9711 2.88067 19.9417 2.88094 20.9477V26.1977H6.38094V19.1977ZM26.2143 26.1977V20.9477C26.2144 19.9075 25.8175 18.9064 25.1046 18.1489C24.3917 17.3913 23.4166 16.9344 22.3783 16.8714C22.5964 17.6087 22.7143 18.3892 22.7143 19.1977V26.1977H26.2143Z"
        fill="white"
    />
</svg>