<svg width="34" height="30" viewBox="0 0 34 30" fill="none" xmlns="http://www.w3.org/2000/svg">
<g clip-path="url(#clip0_222_308)">
<path d="M33.5461 14.1445C30.3685 7.94473 24.0779 3.75 16.875 3.75C9.67204 3.75 3.37966 7.94766 0.203874 14.1451C0.0698363 14.4103 0 14.7032 0 15.0003C0 15.2974 0.0698363 15.5903 0.203874 15.8555C3.38141 22.0553 9.67204 26.25 16.875 26.25C24.0779 26.25 30.3703 22.0523 33.5461 15.8549C33.6801 15.5897 33.7499 15.2968 33.7499 14.9997C33.7499 14.7026 33.6801 14.4097 33.5461 14.1445ZM16.875 23.4375C15.2062 23.4375 13.5749 22.9426 12.1873 22.0155C10.7998 21.0884 9.71835 19.7706 9.07973 18.2289C8.44112 16.6871 8.27403 14.9906 8.59959 13.3539C8.92515 11.7172 9.72875 10.2138 10.9088 9.03379C12.0888 7.85378 13.5922 7.05019 15.2289 6.72462C16.8656 6.39906 18.5621 6.56615 20.1039 7.20477C21.6456 7.84338 22.9634 8.92484 23.8905 10.3124C24.8176 11.6999 25.3125 13.3312 25.3125 15C25.313 16.1082 25.0951 17.2056 24.6713 18.2295C24.2475 19.2535 23.626 20.1838 22.8424 20.9674C22.0588 21.751 21.1284 22.3725 20.1045 22.7963C19.0806 23.2202 17.9831 23.438 16.875 23.4375ZM16.875 9.375C16.3729 9.38201 15.8741 9.45671 15.392 9.59707C15.7894 10.1371 15.9801 10.8017 15.9295 11.4703C15.8789 12.1389 15.5904 12.7672 15.1163 13.2413C14.6422 13.7154 14.0138 14.0039 13.3452 14.0545C12.6767 14.1051 12.0121 13.9144 11.472 13.517C11.1645 14.65 11.22 15.8508 11.6308 16.9506C12.0415 18.0503 12.7868 18.9936 13.7617 19.6476C14.7366 20.3016 15.892 20.6335 17.0654 20.5964C18.2387 20.5593 19.371 20.1552 20.3026 19.441C21.2343 18.7268 21.9186 17.7383 22.259 16.6148C22.5995 15.4913 22.5791 14.2894 22.2007 13.1781C21.8223 12.0668 21.1049 11.1021 20.1496 10.4199C19.1942 9.73769 18.0489 9.37224 16.875 9.375Z" fill="white"/>
</g>
<defs>
<clipPath id="clip0_222_308">
<rect width="33.75" height="30" fill="white"/>
</clipPath>
</defs>
</svg>
