<svg
    width="26"
    height="26"
    viewBox="0 0 26 26"
    fill="none"
    xmlns="http://www.w3.org/2000/svg"
>
    <path
        d="M13.0012 0.5C19.905 0.5 25.5012 6.09625 25.5012 13C25.5012 19.9037 19.905 25.5 13.0012 25.5C10.7922 25.5038 8.62197 24.9192 6.71374 23.8063L0.50624 25.5L2.19624 19.29C1.08244 17.3812 0.497369 15.21 0.50124 13C0.50124 6.09625 6.09749 0.5 13.0012 0.5ZM8.74124 7.125L8.49124 7.135C8.3296 7.14614 8.17167 7.18859 8.02624 7.26C7.89071 7.33689 7.76694 7.43287 7.65874 7.545C7.50874 7.68625 7.42374 7.80875 7.33249 7.9275C6.87014 8.52863 6.62121 9.26664 6.62499 10.025C6.62749 10.6375 6.78749 11.2338 7.03749 11.7913C7.54874 12.9187 8.38999 14.1125 9.49999 15.2188C9.76749 15.485 10.03 15.7525 10.3125 16.0013C11.6918 17.2155 13.3353 18.0912 15.1125 18.5588L15.8225 18.6675C16.0537 18.68 16.285 18.6625 16.5175 18.6512C16.8815 18.6321 17.2369 18.5335 17.5587 18.3625C17.7223 18.2779 17.882 18.1862 18.0375 18.0875C18.0375 18.0875 18.0904 18.0517 18.1937 17.975C18.3625 17.85 18.4662 17.7612 18.6062 17.615C18.7112 17.5067 18.7987 17.3808 18.8687 17.2375C18.9662 17.0338 19.0637 16.645 19.1037 16.3212C19.1337 16.0737 19.125 15.9388 19.1212 15.855C19.1162 15.7213 19.005 15.5825 18.8837 15.5238L18.1562 15.1975C18.1562 15.1975 17.0687 14.7238 16.4037 14.4213C16.3341 14.3909 16.2596 14.3736 16.1837 14.37C16.0982 14.3611 16.0117 14.3706 15.9302 14.398C15.8487 14.4254 15.774 14.47 15.7112 14.5287C15.705 14.5262 15.6212 14.5975 14.7175 15.6925C14.6656 15.7622 14.5942 15.8149 14.5122 15.8438C14.4303 15.8728 14.3416 15.8767 14.2575 15.855C14.176 15.8333 14.0962 15.8057 14.0187 15.7725C13.8637 15.7075 13.81 15.6825 13.7037 15.6375C12.9861 15.3249 12.3218 14.9018 11.735 14.3838C11.5775 14.2463 11.4312 14.0962 11.2812 13.9513C10.7895 13.4803 10.3609 12.9475 10.0062 12.3663L9.93249 12.2475C9.88032 12.1672 9.83754 12.0813 9.80499 11.9913C9.75749 11.8075 9.88124 11.66 9.88124 11.66C9.88124 11.66 10.185 11.3275 10.3262 11.1475C10.4637 10.9725 10.58 10.8025 10.655 10.6813C10.8025 10.4438 10.8487 10.2 10.7712 10.0113C10.4212 9.15625 10.0596 8.30583 9.68624 7.46C9.61249 7.2925 9.39374 7.1725 9.19499 7.14875C9.12749 7.14042 9.05999 7.13375 8.99249 7.12875C8.82465 7.11912 8.65635 7.12079 8.48874 7.13375L8.74124 7.125Z"
        fill="white"
    />
</svg>